<svg t="1755931991122" class="icon" viewBox="0 0 1024 1024" version="1.1"
  xmlns="http://www.w3.org/2000/svg" p-id="18494">
  <path
    d="M967.064857 300.76447c-0.007111-17.198222-3.687111-32.398221-11.128888-45.443554-7.303111-12.828444-18.250666-23.580444-32.927999-32.081777-121.173329-69.87022-242.471103-139.527106-363.605321-209.468437-32.657777-18.85511-64.319998-18.168888-96.739552 0.96-48.231109 28.444443-289.706657 166.791105-361.667543 208.469326C71.363555 240.355583 56.942222 266.609804 56.935111 300.728914 56.888889 441.24802 56.935111 581.760015 56.888889 722.279122c0 16.817777 3.530667 31.726221 10.641777 44.575998 7.310222 13.216 18.40711 24.26311 33.425777 32.956443 71.964442 41.678221 313.471989 180.017772 361.692432 208.465771 32.430221 19.135999 64.095998 19.822222 96.764441 0.96 121.137774-69.944886 242.439103-139.598217 363.633765-209.468437 15.018666-8.689777 26.115555-19.743999 33.425777-32.949333 7.100444-12.849777 10.638222-27.754666 10.638222-44.583109 0 0 0-280.952879-0.046223-421.471985"
    fill="#649AD2" p-id="18495"></path>
  <path
    d="M513.393762 510.136907l-445.866651 256.718213c7.313778 13.216 18.410666 24.26311 33.429332 32.956443 71.964442 41.678221 313.471989 180.017772 361.692432 208.465771 32.430221 19.135999 64.095998 19.822222 96.764441 0.96 121.137774-69.944886 242.439103-139.598217 363.633765-209.468437 15.018666-8.689777 26.115555-19.743999 33.425777-32.949333l-443.079096-256.682657"
    fill="#004482" p-id="18496"></path>
  <path
    d="M381.333322 586.179571c25.944888 45.290665 74.716442 75.839997 130.666662 75.839997 56.295109 0 105.343996-30.933332 131.157329-76.714664l-129.763551-75.167997-132.06044 76.042664"
    fill="#1A4674" p-id="18497"></path>
  <path
    d="M967.064857 300.76447c-0.007111-17.198222-3.687111-32.398221-11.128888-45.443554l-442.542207 254.815991 443.079096 256.682657c7.100444-12.849777 10.631111-27.754666 10.638222-44.583109 0 0 0-280.952879-0.046223-421.471985"
    fill="#01589C" p-id="18498"></path>
  <path
    d="M942.702191 528.483573h-34.623998v34.63111h-34.63111v-34.63111h-34.620443V493.866685h34.620443v-34.623999h34.63111v34.623999h34.623998v34.620443zM511.999984 209.233806c110.702218 0 207.495104 59.519998 260.159991 148.298662l1.578667 2.698666-131.559107 75.75822c-26.072888-44.831998-74.588442-75.000886-130.179551-75.000887-83.128886 0-150.517328 67.388442-150.517328 150.513773a149.79555 149.79555 0 0 0 19.850666 74.677331c25.944888 45.290665 74.716442 75.839997 130.666662 75.839997 55.676443 0 104.266663-30.257777 130.30044-75.210664l0.856889-1.504 131.367107 76.11022c-52.088887 91.011552-150.143995 152.359106-262.524436 152.359106-112.174218 0-210.076437-61.10222-262.236435-151.847106-25.464888-44.298665-40.035554-95.658663-40.035554-150.424884 0-166.933328 135.327995-302.268434 302.271989-302.268434z m269.742213 250.005325v34.623999h34.620443v34.620443h-34.620443v34.63111h-34.623999v-34.63111h-34.623999V493.866685h34.623999v-34.623999h34.623999z"
    fill="#FFFFFF" p-id="18499"></path>
</svg>