<svg t="1755933856757" class="icon" viewBox="0 0 1024 1024" version="1.1"
  xmlns="http://www.w3.org/2000/svg" p-id="26516">
  <path d="M758.176 655.072L246.624 958.816l662.4-44.8L960 246.048 758.176 655.136z" fill="#6C0D00"
    p-id="26517"></path>
  <path d="M910.08 913.44l-56.96-392.96-155.04 204.8 212 188.16z" fill="#871101" p-id="26518"></path>
  <path d="M910.848 913.376L493.76 880.64l-244.928 77.28 662.016-44.544z" fill="#871101"
    p-id="26519"></path>
  <path d="M249.408 957.952L353.6 616.64 124.32 665.6l125.088 292.352z" fill="#B90E00" p-id="26520"></path>
  <path d="M698.016 726.4l-96-375.52L327.776 608l370.24 118.4z" fill="#C70F00" p-id="26521"></path>
  <path d="M938.24 356.064l-259.2-211.84-72.224 233.6 331.424-21.76z" fill="#CB0B00" p-id="26522"></path>
  <path d="M816.96 68.64l-152.544 84.32-96.224-85.44 248.768 1.152z" fill="#9D0900" p-id="26523"></path>
  <path d="M64 780.096l64-116.544-51.776-138.816L64 780.096z" fill="#B90E00" p-id="26524"></path>
  <path
    d="M72.768 520.416l52.032 147.52 225.984-50.688L608.768 377.6 681.6 146.24 566.944 65.28l-194.912 72.96c-61.44 56.96-180.608 170.048-184.896 172.16-4.288 2.08-78.688 142.848-114.368 209.984v0.032z"
    fill="#FFFFFF" p-id="26525"></path>
  <path
    d="M255.392 255.36C388.48 123.424 560 45.44 625.888 111.968c65.888 66.528-3.968 227.84-137.056 359.808-133.088 131.936-302.56 214.08-368.352 147.648-65.792-66.432 1.824-232.256 134.912-364.064z"
    fill="#BD0012" p-id="26526"></path>
  <path
    d="M249.408 957.888l103.36-342.4 343.36 110.304C571.968 842.208 433.92 940.608 249.408 957.92z"
    fill="#8C0C01" p-id="26527"></path>
  <path
    d="M609.216 376.832l88.128 349.12c103.68-109.024 196.8-226.24 242.336-371.2l-330.496 22.08h0.032z"
    fill="#7E110B" p-id="26528"></path>
  <path d="M938.784 356.512c35.2-106.464 43.424-259.2-122.912-287.52l-136.48 75.36 259.392 212.16z"
    fill="#79130D" p-id="26529"></path>
  <path d="M64 778.624c4.896 175.68 131.648 178.304 185.6 179.84l-124.8-291.2L64 778.624z"
    fill="#9E1209" p-id="26530"></path>
  <path
    d="M609.696 377.312c79.68 48.992 240.288 147.2 243.52 149.152a561.6 561.6 0 0 0 83.808-170.976l-327.36 21.856z"
    fill="#A80D00" p-id="26531"></path>
  <path
    d="M352.672 615.488L490.88 882.112a893.568 893.568 0 0 0 204.32-156.16L352.8 615.488h-0.128z"
    fill="#A30C00" p-id="26532"></path>
  <path
    d="M124.384 667.552L104.8 900.736c36.96 50.464 87.776 54.848 141.088 50.912-38.56-96-115.648-288-121.6-284.096h0.096z"
    fill="#8B2114" p-id="26533"></path>
  <path
    d="M678.592 144.928l274.56 38.4c-14.656-62.08-59.648-102.144-136.32-114.688l-138.24 76.16v0.128z"
    fill="#B31000" p-id="26534"></path>
</svg>